# xmcd CD database file
#
# Track frame offsets:
#	150
#	13621
#	26404
#	38021
#	49537
#	62464
#	74832
#	88828
#	102101
#	116618
#	130165
#	144651
#	157437
#	171893
#	192610
#	204218
#	217376
#	232220
#	244617
#	258533
#	271263
#	286555
#
# Disc length: 4013 seconds
#
# Revision: 2
# Processed by: cddbd v1.5.2PL0 Copyright (c) Steve Scherf et al.
# Submitted via: CDex 1.51
#
DISCID=4c0fab16
DTITLE=Count Basie - and His Orchestra - Vol.1 - The Star of a Jazz Legend  {1937-1939}
DYEAR=2005
DGENRE=Jazz
TTITLE0=Honeysuckle Rose   [1937]
TTITLE1=Swinging At The Daisy Chain   [1937]
TTITLE2=Roseland Shuffle   [1937]
TTITLE3=The Glory Of Love   [1937]
TTITLE4=Boogie Woogie  (I May Be Wrong)   [1937]
TTITLE5=Smarty   [1937]
TTITLE6=One O'Clock Jump   [1937]
TTITLE7=John's Idea   [1937]
TTITLE8=Good Morning Blues   [1937]
TTITLE9=Time Out   [1937]
TTITLE10=Topsy   [1937]
TTITLE11=Out The Window   [1937]
TTITLE12=Don't You Miss Your Baby ¿   [1937]
TTITLE13=One O'Clock Jump   [1937]
TTITLE14=Georgiana   [1938]
TTITLE15=Sent For You Yesterday   [1938]
TTITLE16=Every Tub   [1938]
TTITLE17=Swinging The Blues   [1938]
TTITLE18=Jumpin' At The Woodside   [1938]
TTITLE19=Shorty George   [1938]
TTITLE20=The Blues I Like To Hear   [1938]
TTITLE21=Oh Lady Be Good   [1939]
EXTD=YEAR: 2005
EXTT0=
EXTT1=
EXTT2=
EXTT3=
EXTT4=
EXTT5=
EXTT6=
EXTT7=
EXTT8=
EXTT9=
EXTT10=
EXTT11=
EXTT12=
EXTT13=
EXTT14=
EXTT15=
EXTT16=
EXTT17=
EXTT18=
EXTT19=
EXTT20=
EXTT21=
PLAYORDER=
